<svg xmlns="http://www.w3.org/2000/svg" width="1200" height="720" viewBox="0 0 1200 720" role="img" aria-labelledby="title">
  <title id="title">Character card contribution</title>
  <rect width="1200" height="720" rx="18" fill="#ffffff"/>
  <style>
    text { font-family: Arial, Helvetica, sans-serif; fill: #263238; }
    .title { font-size: 34px; font-weight: 700; fill: #1a3a5c; }
    .subtitle { font-size: 18px; fill: #607080; }
    .axis { font-size: 17px; fill: #607080; }
    .label { font-size: 19px; font-weight: 600; }
    .value { font-size: 18px; font-weight: 700; }
    .note { font-size: 16px; fill: #607080; }
  </style>
  <text x="55.0" y="55.0" text-anchor="start" class="title">Character Card Contribution in train_4</text>
  <text x="55.0" y="88.0" text-anchor="start" class="subtitle">Weighted judge score: prompt benefit is larger than LoRA&#x27;s extra gain</text>
  <line x1="145.0" y1="600.0" x2="1130.0" y2="600.0" stroke="#c8d2dc" stroke-width="1"/>
  <text x="127.0" y="606.0" text-anchor="end" class="axis">0</text>
  <line x1="145.0" y1="505.0" x2="1130.0" y2="505.0" stroke="#c8d2dc" stroke-width="1"/>
  <text x="127.0" y="511.0" text-anchor="end" class="axis">1</text>
  <line x1="145.0" y1="410.0" x2="1130.0" y2="410.0" stroke="#c8d2dc" stroke-width="1"/>
  <text x="127.0" y="416.0" text-anchor="end" class="axis">2</text>
  <line x1="145.0" y1="315.0" x2="1130.0" y2="315.0" stroke="#c8d2dc" stroke-width="1"/>
  <text x="127.0" y="321.0" text-anchor="end" class="axis">3</text>
  <line x1="145.0" y1="220.0" x2="1130.0" y2="220.0" stroke="#c8d2dc" stroke-width="1"/>
  <text x="127.0" y="226.0" text-anchor="end" class="axis">4</text>
  <line x1="145.0" y1="125.0" x2="1130.0" y2="125.0" stroke="#c8d2dc" stroke-width="1"/>
  <text x="127.0" y="131.0" text-anchor="end" class="axis">5</text>
  <line x1="145.0" y1="125.0" x2="145.0" y2="600.0" stroke="#1a3a5c" stroke-width="2"/>
  <line x1="145.0" y1="600.0" x2="1130.0" y2="600.0" stroke="#1a3a5c" stroke-width="2"/>
  <rect x="206.2" y="415.9" width="92" height="184.1" rx="8" fill="#1a3a5c" fill-opacity="1"/>
  <text x="252.2" y="403.9" text-anchor="middle" class="value" fill="#1a3a5c">1.938</text>
  <rect x="320.2" y="421.2" width="92" height="178.8" rx="8" fill="#1a3a5c" fill-opacity="0.55"/>
  <text x="366.2" y="409.2" text-anchor="middle" class="value" fill="#1a3a5c">1.882</text>
  <text x="309.2" y="645.0" text-anchor="middle" class="label">Base, no card</text>
  <rect x="534.5" y="343.2" width="92" height="256.8" rx="8" fill="#c89518" fill-opacity="1"/>
  <text x="580.5" y="331.2" text-anchor="middle" class="value" fill="#c89518">2.703</text>
  <rect x="648.5" y="300.5" width="92" height="299.5" rx="8" fill="#c89518" fill-opacity="0.55"/>
  <text x="694.5" y="288.5" text-anchor="middle" class="value" fill="#c89518">3.153</text>
  <text x="637.5" y="645.0" text-anchor="middle" class="label">Base + card</text>
  <rect x="862.8" y="320.9" width="92" height="279.1" rx="8" fill="#2e7d32" fill-opacity="1"/>
  <text x="908.8" y="308.9" text-anchor="middle" class="value" fill="#2e7d32">2.938</text>
  <rect x="976.8" y="346.5" width="92" height="253.5" rx="8" fill="#2e7d32" fill-opacity="0.55"/>
  <text x="1022.8" y="334.5" text-anchor="middle" class="value" fill="#2e7d32">2.668</text>
  <text x="965.8" y="645.0" text-anchor="middle" class="label">LoRA + card</text>
  <rect x="410" y="665" width="32" height="18" rx="4" fill="#4a7a9a"/>
  <text x="455.0" y="680.0" text-anchor="start" class="label">Single-turn</text>
  <rect x="650" y="665" width="32" height="18" rx="4" fill="#4a7a9a" fill-opacity="0.55"/>
  <text x="695.0" y="680.0" text-anchor="start" class="label">Four-turn</text>
  <text x="640.0" y="165.0" text-anchor="middle" class="value" fill="#c89518">+0.765 prompt gain</text>
  <text x="915.0" y="165.0" text-anchor="middle" class="value" fill="#2e7d32">+0.235 LoRA gain</text>
</svg>
