<svg xmlns="http://www.w3.org/2000/svg" width="1200" height="760" viewBox="0 0 1200 760" role="img" aria-labelledby="title">
  <title id="title">Paired effects</title>
  <rect width="1200" height="760" rx="18" fill="#ffffff"/>
  <style>
    text { font-family: Arial, Helvetica, sans-serif; fill: #263238; }
    .title { font-size: 34px; font-weight: 700; fill: #1a3a5c; }
    .subtitle { font-size: 18px; fill: #607080; }
    .axis { font-size: 17px; fill: #607080; }
    .label { font-size: 19px; font-weight: 600; }
    .value { font-size: 18px; font-weight: 700; }
    .note { font-size: 16px; fill: #607080; }
  </style>
  <text x="55.0" y="55.0" text-anchor="start" class="title">Paired Effect: LoRA - Base + Card</text>
  <text x="55.0" y="88.0" text-anchor="start" class="subtitle">Weighted-score difference with bootstrap 95% confidence intervals</text>
  <line x1="322.7" y1="125.0" x2="322.7" y2="665.0" stroke="#c8d2dc" stroke-width="1"/>
  <text x="322.7" y="700.0" text-anchor="middle" class="axis">-1.5</text>
  <line x1="493.8" y1="125.0" x2="493.8" y2="665.0" stroke="#c8d2dc" stroke-width="1"/>
  <text x="493.8" y="700.0" text-anchor="middle" class="axis">-1.0</text>
  <line x1="665.0" y1="125.0" x2="665.0" y2="665.0" stroke="#c8d2dc" stroke-width="1"/>
  <text x="665.0" y="700.0" text-anchor="middle" class="axis">-0.5</text>
  <line x1="836.2" y1="125.0" x2="836.2" y2="665.0" stroke="#b04020" stroke-width="3"/>
  <text x="836.2" y="700.0" text-anchor="middle" class="axis">+0.0</text>
  <line x1="1007.3" y1="125.0" x2="1007.3" y2="665.0" stroke="#c8d2dc" stroke-width="1"/>
  <text x="1007.3" y="700.0" text-anchor="middle" class="axis">+0.5</text>
  <text x="192.0" y="177.0" text-anchor="end" class="label">train_1</text>
  <line x1="220.0" y1="215.0" x2="1110.0" y2="215.0" stroke="#c8d2dc" stroke-width="1"/>
  <line x1="748.9" y1="153.0" x2="949.1" y2="153.0" stroke="#2e7d32" stroke-width="5"/>
  <line x1="748.9" y1="143.0" x2="748.9" y2="163.0" stroke="#2e7d32" stroke-width="3"/>
  <line x1="949.1" y1="143.0" x2="949.1" y2="163.0" stroke="#2e7d32" stroke-width="3"/>
  <circle cx="850.9" cy="153.0" r="9" fill="#2e7d32"/>
  <rect x="593.7" y="178.0" width="16" height="16" fill="#b04020"/>
  <text x="1118.0" y="177.0" text-anchor="start" class="value" fill="#2e7d32">win 44.0%</text>
  <text x="192.0" y="267.0" text-anchor="end" class="label">train_2</text>
  <line x1="220.0" y1="305.0" x2="1110.0" y2="305.0" stroke="#c8d2dc" stroke-width="1"/>
  <line x1="648.9" y1="243.0" x2="907.0" y2="243.0" stroke="#2e7d32" stroke-width="5"/>
  <line x1="648.9" y1="233.0" x2="648.9" y2="253.0" stroke="#2e7d32" stroke-width="3"/>
  <line x1="907.0" y1="233.0" x2="907.0" y2="253.0" stroke="#2e7d32" stroke-width="3"/>
  <circle cx="775.9" cy="243.0" r="9" fill="#2e7d32"/>
  <rect x="447.2" y="268.0" width="16" height="16" fill="#b04020"/>
  <text x="1118.0" y="267.0" text-anchor="start" class="value" fill="#2e7d32">win 48.6%</text>
  <text x="192.0" y="357.0" text-anchor="end" class="label">train_3</text>
  <line x1="220.0" y1="395.0" x2="1110.0" y2="395.0" stroke="#c8d2dc" stroke-width="1"/>
  <line x1="826.2" y1="333.0" x2="1060.7" y2="333.0" stroke="#2e7d32" stroke-width="5"/>
  <line x1="826.2" y1="323.0" x2="826.2" y2="343.0" stroke="#2e7d32" stroke-width="3"/>
  <line x1="1060.7" y1="323.0" x2="1060.7" y2="343.0" stroke="#2e7d32" stroke-width="3"/>
  <circle cx="939.9" cy="333.0" r="9" fill="#2e7d32"/>
  <rect x="641.6" y="358.0" width="16" height="16" fill="#b04020"/>
  <text x="1118.0" y="357.0" text-anchor="start" class="value" fill="#2e7d32">win 55.6%</text>
  <text x="192.0" y="447.0" text-anchor="end" class="label">train_4</text>
  <line x1="220.0" y1="485.0" x2="1110.0" y2="485.0" stroke="#c8d2dc" stroke-width="1"/>
  <line x1="815.6" y1="423.0" x2="1027.2" y2="423.0" stroke="#2e7d32" stroke-width="5"/>
  <line x1="815.6" y1="413.0" x2="815.6" y2="433.0" stroke="#2e7d32" stroke-width="3"/>
  <line x1="1027.2" y1="413.0" x2="1027.2" y2="433.0" stroke="#2e7d32" stroke-width="3"/>
  <circle cx="916.6" cy="423.0" r="9" fill="#2e7d32"/>
  <rect x="662.1" y="448.0" width="16" height="16" fill="#b04020"/>
  <text x="1118.0" y="447.0" text-anchor="start" class="value" fill="#2e7d32">win 55.6%</text>
  <text x="192.0" y="537.0" text-anchor="end" class="label">train_5</text>
  <line x1="220.0" y1="575.0" x2="1110.0" y2="575.0" stroke="#c8d2dc" stroke-width="1"/>
  <line x1="822.8" y1="513.0" x2="1034.7" y2="513.0" stroke="#2e7d32" stroke-width="5"/>
  <line x1="822.8" y1="503.0" x2="822.8" y2="523.0" stroke="#2e7d32" stroke-width="3"/>
  <line x1="1034.7" y1="503.0" x2="1034.7" y2="523.0" stroke="#2e7d32" stroke-width="3"/>
  <circle cx="927.6" cy="513.0" r="9" fill="#2e7d32"/>
  <rect x="573.8" y="538.0" width="16" height="16" fill="#b04020"/>
  <text x="1118.0" y="537.0" text-anchor="start" class="value" fill="#2e7d32">win 55.0%</text>
  <text x="192.0" y="627.0" text-anchor="end" class="label">train_6</text>
  <line x1="220.0" y1="665.0" x2="1110.0" y2="665.0" stroke="#c8d2dc" stroke-width="1"/>
  <line x1="807.1" y1="603.0" x2="1017.6" y2="603.0" stroke="#2e7d32" stroke-width="5"/>
  <line x1="807.1" y1="593.0" x2="807.1" y2="613.0" stroke="#2e7d32" stroke-width="3"/>
  <line x1="1017.6" y1="593.0" x2="1017.6" y2="613.0" stroke="#2e7d32" stroke-width="3"/>
  <circle cx="914.2" cy="603.0" r="9" fill="#2e7d32"/>
  <rect x="643.3" y="628.0" width="16" height="16" fill="#b04020"/>
  <text x="1118.0" y="627.0" text-anchor="start" class="value" fill="#2e7d32">win 50.0%</text>
  <line x1="315" y1="710" x2="365" y2="710" stroke="#2e7d32" stroke-width="5"/>
  <circle cx="340" cy="710" r="8" fill="#2e7d32"/>
  <text x="380.0" y="717.0" text-anchor="start" class="label">Single-turn mean and 95% CI</text>
  <rect x="705" y="702" width="16" height="16" fill="#b04020"/>
  <text x="735.0" y="717.0" text-anchor="start" class="label">Four-turn mean</text>
  <text x="55.0" y="745.0" text-anchor="start" class="note">All single-turn intervals cross zero; all 6 four-turn means are negative.</text>
</svg>
